<svg xmlns="http://www.w3.org/2000/svg" xmlns:xlink="http://www.w3.org/1999/xlink" contentStyleType="text/css" height="620px" preserveAspectRatio="none" style="width:2943px;height:620px;background:#DDDDDD;" version="1.1" viewBox="0 0 2943 620" width="2943px" zoomAndPan="magnify"><defs/><g><rect fill="#DDDDDD" height="620" style="stroke:none;stroke-width:1.0;" width="2943" x="0" y="0"/><text fill="#000000" font-family="sans-serif" font-size="14" font-weight="bold" lengthAdjust="spacing" textLength="444" x="1242.645" y="22.9951">Diagrama de Blocos Simplificado - Simulador UTM Futuro</text><!--cluster M?dulo de Simula??o Central--><g id="cluster_M&#243;dulo de Simula&#231;&#227;o Central"><path d="M9.5,43.2969 L236.5,43.2969 A5.25,5.25 0 0 1 240,46.7969 L247,65.5938 L497.5,65.5938 A3.5,3.5 0 0 1 501,69.0938 L501,484.6869 A3.5,3.5 0 0 1 497.5,488.1869 L9.5,488.1869 A3.5,3.5 0 0 1 6,484.6869 L6,46.7969 A3.5,3.5 0 0 1 9.5,43.2969 " fill="none" style="stroke:#454645;stroke-width:1.0;"/><line style="stroke:#454645;stroke-width:1.0;" x1="6" x2="247" y1="65.5938" y2="65.5938"/><text fill="#000000" font-family="sans-serif" font-size="14" font-weight="bold" lengthAdjust="spacing" textLength="228" x="10" y="58.292">M&#243;dulo de Simula&#231;&#227;o Central</text></g><!--cluster M?dulo de Gerenciamento UTM--><g id="cluster_M&#243;dulo de Gerenciamento UTM"><path d="M772.5,371.8969 L1018.5,371.8969 A5.25,5.25 0 0 1 1022,375.3969 L1029,394.1938 L1464.5,394.1938 A3.5,3.5 0 0 1 1468,397.6938 L1468,609.9869 A3.5,3.5 0 0 1 1464.5,613.4869 L772.5,613.4869 A3.5,3.5 0 0 1 769,609.9869 L769,375.3969 A3.5,3.5 0 0 1 772.5,371.8969 " fill="none" style="stroke:#454645;stroke-width:1.0;"/><line style="stroke:#454645;stroke-width:1.0;" x1="769" x2="1029" y1="394.1938" y2="394.1938"/><text fill="#000000" font-family="sans-serif" font-size="14" font-weight="bold" lengthAdjust="spacing" textLength="247" x="773" y="386.892">M&#243;dulo de Gerenciamento UTM</text></g><!--cluster M?dulo de Entidades e Voo--><g id="cluster_M&#243;dulo de Entidades e Voo"><path d="M2311.5,371.8969 L2525.5,371.8969 A5.25,5.25 0 0 1 2529,375.3969 L2536,394.1938 L2841.5,394.1938 A3.5,3.5 0 0 1 2845,397.6938 L2845,609.9869 A3.5,3.5 0 0 1 2841.5,613.4869 L2311.5,613.4869 A3.5,3.5 0 0 1 2308,609.9869 L2308,375.3969 A3.5,3.5 0 0 1 2311.5,371.8969 " fill="none" style="stroke:#454645;stroke-width:1.0;"/><line style="stroke:#454645;stroke-width:1.0;" x1="2308" x2="2536" y1="394.1938" y2="394.1938"/><text fill="#000000" font-family="sans-serif" font-size="14" font-weight="bold" lengthAdjust="spacing" textLength="215" x="2312" y="386.892">M&#243;dulo de Entidades e Voo</text></g><!--cluster M?dulo de An?lise e Relat?rios--><g id="cluster_M&#243;dulo de An&#225;lise e Relat&#243;rios"><path d="M1495.5,206.5969 L1737.5,206.5969 A5.25,5.25 0 0 1 1741,210.0969 L1748,228.8938 L2280.5,228.8938 A3.5,3.5 0 0 1 2284,232.3938 L2284,484.6869 A3.5,3.5 0 0 1 2280.5,488.1869 L1495.5,488.1869 A3.5,3.5 0 0 1 1492,484.6869 L1492,210.0969 A3.5,3.5 0 0 1 1495.5,206.5969 " fill="none" style="stroke:#454645;stroke-width:1.0;"/><line style="stroke:#454645;stroke-width:1.0;" x1="1492" x2="1748" y1="228.8938" y2="228.8938"/><text fill="#000000" font-family="sans-serif" font-size="14" font-weight="bold" lengthAdjust="spacing" textLength="243" x="1496" y="221.592">M&#243;dulo de An&#225;lise e Relat&#243;rios</text></g><!--cluster M?dulo de Visualiza??o e Intera??o--><g id="cluster_M&#243;dulo de Visualiza&#231;&#227;o e Intera&#231;&#227;o"><path d="M528.5,206.5969 L805.5,206.5969 A5.25,5.25 0 0 1 809,210.0969 L816,228.8938 L1464.5,228.8938 A3.5,3.5 0 0 1 1468,232.3938 L1468,319.3969 A3.5,3.5 0 0 1 1464.5,322.8969 L528.5,322.8969 A3.5,3.5 0 0 1 525,319.3969 L525,210.0969 A3.5,3.5 0 0 1 528.5,206.5969 " fill="none" style="stroke:#454645;stroke-width:1.0;"/><line style="stroke:#454645;stroke-width:1.0;" x1="525" x2="816" y1="228.8938" y2="228.8938"/><text fill="#000000" font-family="sans-serif" font-size="14" font-weight="bold" lengthAdjust="spacing" textLength="278" x="529" y="221.592">M&#243;dulo de Visualiza&#231;&#227;o e Intera&#231;&#227;o</text></g><!--entity SIM_CORE--><g id="elem_SIM_CORE"><rect fill="#F1F1F1" height="46.2969" rx="3.5" ry="3.5" style="stroke:#181818;stroke-width:0.5;" width="147" x="297.5" y="260.5969"/><rect fill="#F1F1F1" height="10" style="stroke:#181818;stroke-width:0.5;" width="15" x="424.5" y="265.5969"/><rect fill="#F1F1F1" height="2" style="stroke:#181818;stroke-width:0.5;" width="4" x="422.5" y="267.5969"/><rect fill="#F1F1F1" height="2" style="stroke:#181818;stroke-width:0.5;" width="4" x="422.5" y="271.5969"/><text fill="#000000" font-family="sans-serif" font-size="14" lengthAdjust="spacing" textLength="107" x="312.5" y="293.592">Simula&#231;&#227;o Core</text></g><!--entity AMB_4D--><g id="elem_AMB_4D"><rect fill="#F1F1F1" height="46.2969" rx="3.5" ry="3.5" style="stroke:#181818;stroke-width:0.5;" width="200" x="22" y="425.8969"/><rect fill="#F1F1F1" height="10" style="stroke:#181818;stroke-width:0.5;" width="15" x="202" y="430.8969"/><rect fill="#F1F1F1" height="2" style="stroke:#181818;stroke-width:0.5;" width="4" x="200" y="432.8969"/><rect fill="#F1F1F1" height="2" style="stroke:#181818;stroke-width:0.5;" width="4" x="200" y="436.8969"/><text fill="#000000" font-family="sans-serif" font-size="14" lengthAdjust="spacing" textLength="160" x="37" y="458.892">Cen&#225;rio e Ambiente 4D</text></g><!--entity CONFIG--><g id="elem_CONFIG"><rect fill="#F1F1F1" height="46.2969" rx="3.5" ry="3.5" style="stroke:#181818;stroke-width:0.5;" width="227" x="257.5" y="425.8969"/><rect fill="#F1F1F1" height="10" style="stroke:#181818;stroke-width:0.5;" width="15" x="464.5" y="430.8969"/><rect fill="#F1F1F1" height="2" style="stroke:#181818;stroke-width:0.5;" width="4" x="462.5" y="432.8969"/><rect fill="#F1F1F1" height="2" style="stroke:#181818;stroke-width:0.5;" width="4" x="462.5" y="436.8969"/><text fill="#000000" font-family="sans-serif" font-size="14" lengthAdjust="spacing" textLength="187" x="272.5" y="458.892">Par&#226;metros e Configura&#231;&#227;o</text></g><!--entity INJ_FALHAS--><g id="elem_INJ_FALHAS"><rect fill="#F1F1F1" height="46.2969" rx="3.5" ry="3.5" style="stroke:#181818;stroke-width:0.5;" width="153" x="331.5" y="97.2969"/><rect fill="#F1F1F1" height="10" style="stroke:#181818;stroke-width:0.5;" width="15" x="464.5" y="102.2969"/><rect fill="#F1F1F1" height="2" style="stroke:#181818;stroke-width:0.5;" width="4" x="462.5" y="104.2969"/><rect fill="#F1F1F1" height="2" style="stroke:#181818;stroke-width:0.5;" width="4" x="462.5" y="108.2969"/><text fill="#000000" font-family="sans-serif" font-size="14" lengthAdjust="spacing" textLength="113" x="346.5" y="130.292">Injetor de Falhas</text></g><!--entity MOD_PERF--><g id="elem_MOD_PERF"><rect fill="#F1F1F1" height="46.2969" rx="3.5" ry="3.5" style="stroke:#181818;stroke-width:0.5;" width="205" x="91.5" y="97.2969"/><rect fill="#F1F1F1" height="10" style="stroke:#181818;stroke-width:0.5;" width="15" x="276.5" y="102.2969"/><rect fill="#F1F1F1" height="2" style="stroke:#181818;stroke-width:0.5;" width="4" x="274.5" y="104.2969"/><rect fill="#F1F1F1" height="2" style="stroke:#181818;stroke-width:0.5;" width="4" x="274.5" y="108.2969"/><text fill="#000000" font-family="sans-serif" font-size="14" lengthAdjust="spacing" textLength="165" x="106.5" y="130.292">M&#243;dulo de Performance</text></g><!--entity PROV_UTM--><g id="elem_PROV_UTM"><rect fill="#F1F1F1" height="46.2969" rx="3.5" ry="3.5" style="stroke:#181818;stroke-width:0.5;" width="179" x="1029.5" y="425.8969"/><rect fill="#F1F1F1" height="10" style="stroke:#181818;stroke-width:0.5;" width="15" x="1188.5" y="430.8969"/><rect fill="#F1F1F1" height="2" style="stroke:#181818;stroke-width:0.5;" width="4" x="1186.5" y="432.8969"/><rect fill="#F1F1F1" height="2" style="stroke:#181818;stroke-width:0.5;" width="4" x="1186.5" y="436.8969"/><text fill="#000000" font-family="sans-serif" font-size="14" lengthAdjust="spacing" textLength="139" x="1044.5" y="458.892">Provedor UTM (USS)</text></g><!--entity AUT_AERO--><g id="elem_AUT_AERO"><rect fill="#F1F1F1" height="46.2969" rx="3.5" ry="3.5" style="stroke:#181818;stroke-width:0.5;" width="201" x="1013.5" y="551.1869"/><rect fill="#F1F1F1" height="10" style="stroke:#181818;stroke-width:0.5;" width="15" x="1194.5" y="556.1869"/><rect fill="#F1F1F1" height="2" style="stroke:#181818;stroke-width:0.5;" width="4" x="1192.5" y="558.1869"/><rect fill="#F1F1F1" height="2" style="stroke:#181818;stroke-width:0.5;" width="4" x="1192.5" y="562.1869"/><text fill="#000000" font-family="sans-serif" font-size="14" lengthAdjust="spacing" textLength="161" x="1028.5" y="584.182">Autoridade Aeron&#225;utica</text></g><!--entity DSS--><g id="elem_DSS"><rect fill="#F1F1F1" height="46.2969" rx="3.5" ry="3.5" style="stroke:#181818;stroke-width:0.5;" width="203" x="1249.5" y="551.1869"/><rect fill="#F1F1F1" height="10" style="stroke:#181818;stroke-width:0.5;" width="15" x="1432.5" y="556.1869"/><rect fill="#F1F1F1" height="2" style="stroke:#181818;stroke-width:0.5;" width="4" x="1430.5" y="558.1869"/><rect fill="#F1F1F1" height="2" style="stroke:#181818;stroke-width:0.5;" width="4" x="1430.5" y="562.1869"/><text fill="#000000" font-family="sans-serif" font-size="14" lengthAdjust="spacing" textLength="163" x="1264.5" y="584.182">DSS (Discovery &amp; Sync)</text></g><!--entity AG_DESC--><g id="elem_AG_DESC"><rect fill="#F1F1F1" height="46.2969" rx="3.5" ry="3.5" style="stroke:#181818;stroke-width:0.5;" width="194" x="785" y="551.1869"/><rect fill="#F1F1F1" height="10" style="stroke:#181818;stroke-width:0.5;" width="15" x="959" y="556.1869"/><rect fill="#F1F1F1" height="2" style="stroke:#181818;stroke-width:0.5;" width="4" x="957" y="558.1869"/><rect fill="#F1F1F1" height="2" style="stroke:#181818;stroke-width:0.5;" width="4" x="957" y="562.1869"/><text fill="#000000" font-family="sans-serif" font-size="14" lengthAdjust="spacing" textLength="154" x="800" y="584.182">Agente de Desconflito</text></g><!--entity MOD_FISC--><g id="elem_MOD_FISC"><rect fill="#F1F1F1" height="46.2969" rx="3.5" ry="3.5" style="stroke:#181818;stroke-width:0.5;" width="199" x="1250.5" y="425.8969"/><rect fill="#F1F1F1" height="10" style="stroke:#181818;stroke-width:0.5;" width="15" x="1429.5" y="430.8969"/><rect fill="#F1F1F1" height="2" style="stroke:#181818;stroke-width:0.5;" width="4" x="1427.5" y="432.8969"/><rect fill="#F1F1F1" height="2" style="stroke:#181818;stroke-width:0.5;" width="4" x="1427.5" y="436.8969"/><text fill="#000000" font-family="sans-serif" font-size="14" lengthAdjust="spacing" textLength="159" x="1265.5" y="458.892">Modelo de Fiscaliza&#231;&#227;o</text></g><!--entity DRONE_MODEL--><g id="elem_DRONE_MODEL"><rect fill="#F1F1F1" height="46.2969" rx="3.5" ry="3.5" style="stroke:#181818;stroke-width:0.5;" width="269" x="2560.5" y="425.8969"/><rect fill="#F1F1F1" height="10" style="stroke:#181818;stroke-width:0.5;" width="15" x="2809.5" y="430.8969"/><rect fill="#F1F1F1" height="2" style="stroke:#181818;stroke-width:0.5;" width="4" x="2807.5" y="432.8969"/><rect fill="#F1F1F1" height="2" style="stroke:#181818;stroke-width:0.5;" width="4" x="2807.5" y="436.8969"/><text fill="#000000" font-family="sans-serif" font-size="14" lengthAdjust="spacing" textLength="229" x="2575.5" y="458.892">Drone / Aeronave (Modelo F&#237;sico)</text></g><!--entity OPERADOR--><g id="elem_OPERADOR"><rect fill="#F1F1F1" height="46.2969" rx="3.5" ry="3.5" style="stroke:#181818;stroke-width:0.5;" width="201" x="2324.5" y="425.8969"/><rect fill="#F1F1F1" height="10" style="stroke:#181818;stroke-width:0.5;" width="15" x="2505.5" y="430.8969"/><rect fill="#F1F1F1" height="2" style="stroke:#181818;stroke-width:0.5;" width="4" x="2503.5" y="432.8969"/><rect fill="#F1F1F1" height="2" style="stroke:#181818;stroke-width:0.5;" width="4" x="2503.5" y="436.8969"/><text fill="#000000" font-family="sans-serif" font-size="14" lengthAdjust="spacing" textLength="161" x="2339.5" y="458.892">Operador / Cliente UTM</text></g><!--entity OIR_PV--><g id="elem_OIR_PV"><rect fill="#F1F1F1" height="46.2969" rx="3.5" ry="3.5" style="stroke:#181818;stroke-width:0.5;" width="206" x="2324" y="551.1869"/><rect fill="#F1F1F1" height="10" style="stroke:#181818;stroke-width:0.5;" width="15" x="2510" y="556.1869"/><rect fill="#F1F1F1" height="2" style="stroke:#181818;stroke-width:0.5;" width="4" x="2508" y="558.1869"/><rect fill="#F1F1F1" height="2" style="stroke:#181818;stroke-width:0.5;" width="4" x="2508" y="562.1869"/><text fill="#000000" font-family="sans-serif" font-size="14" lengthAdjust="spacing" textLength="166" x="2339" y="584.182">OIR e Plano de Voo (4D)</text></g><!--entity PROTO_COM--><g id="elem_PROTO_COM"><rect fill="#F1F1F1" height="46.2969" rx="3.5" ry="3.5" style="stroke:#181818;stroke-width:0.5;" width="226" x="2593" y="551.1869"/><rect fill="#F1F1F1" height="10" style="stroke:#181818;stroke-width:0.5;" width="15" x="2799" y="556.1869"/><rect fill="#F1F1F1" height="2" style="stroke:#181818;stroke-width:0.5;" width="4" x="2797" y="558.1869"/><rect fill="#F1F1F1" height="2" style="stroke:#181818;stroke-width:0.5;" width="4" x="2797" y="562.1869"/><text fill="#000000" font-family="sans-serif" font-size="14" lengthAdjust="spacing" textLength="186" x="2608" y="584.182">Protocolo de Comunica&#231;&#227;o</text></g><!--entity MONITOR--><g id="elem_MONITOR"><rect fill="#F1F1F1" height="46.2969" rx="3.5" ry="3.5" style="stroke:#181818;stroke-width:0.5;" width="235" x="2032.5" y="260.5969"/><rect fill="#F1F1F1" height="10" style="stroke:#181818;stroke-width:0.5;" width="15" x="2247.5" y="265.5969"/><rect fill="#F1F1F1" height="2" style="stroke:#181818;stroke-width:0.5;" width="4" x="2245.5" y="267.5969"/><rect fill="#F1F1F1" height="2" style="stroke:#181818;stroke-width:0.5;" width="4" x="2245.5" y="271.5969"/><text fill="#000000" font-family="sans-serif" font-size="14" lengthAdjust="spacing" textLength="195" x="2047.5" y="293.592">Monitoramento e Telemetria</text></g><!--entity RELATORIO--><g id="elem_RELATORIO"><rect fill="#F1F1F1" height="46.2969" rx="3.5" ry="3.5" style="stroke:#181818;stroke-width:0.5;" width="197" x="1572.5" y="425.8969"/><rect fill="#F1F1F1" height="10" style="stroke:#181818;stroke-width:0.5;" width="15" x="1749.5" y="430.8969"/><rect fill="#F1F1F1" height="2" style="stroke:#181818;stroke-width:0.5;" width="4" x="1747.5" y="432.8969"/><rect fill="#F1F1F1" height="2" style="stroke:#181818;stroke-width:0.5;" width="4" x="1747.5" y="436.8969"/><text fill="#000000" font-family="sans-serif" font-size="14" lengthAdjust="spacing" textLength="157" x="1587.5" y="458.892">Relat&#243;rio de Simula&#231;&#227;o</text></g><!--entity AUDITORIA--><g id="elem_AUDITORIA"><rect fill="#F1F1F1" height="46.2969" rx="3.5" ry="3.5" style="stroke:#181818;stroke-width:0.5;" width="188" x="1508" y="260.5969"/><rect fill="#F1F1F1" height="10" style="stroke:#181818;stroke-width:0.5;" width="15" x="1676" y="265.5969"/><rect fill="#F1F1F1" height="2" style="stroke:#181818;stroke-width:0.5;" width="4" x="1674" y="267.5969"/><rect fill="#F1F1F1" height="2" style="stroke:#181818;stroke-width:0.5;" width="4" x="1674" y="271.5969"/><text fill="#000000" font-family="sans-serif" font-size="14" lengthAdjust="spacing" textLength="148" x="1523" y="293.592">Auditoria de Provedor</text></g><!--entity METRICAS--><g id="elem_METRICAS"><rect fill="#F1F1F1" height="46.2969" rx="3.5" ry="3.5" style="stroke:#181818;stroke-width:0.5;" width="219" x="2040.5" y="425.8969"/><rect fill="#F1F1F1" height="10" style="stroke:#181818;stroke-width:0.5;" width="15" x="2239.5" y="430.8969"/><rect fill="#F1F1F1" height="2" style="stroke:#181818;stroke-width:0.5;" width="4" x="2237.5" y="432.8969"/><rect fill="#F1F1F1" height="2" style="stroke:#181818;stroke-width:0.5;" width="4" x="2237.5" y="436.8969"/><text fill="#000000" font-family="sans-serif" font-size="14" lengthAdjust="spacing" textLength="179" x="2055.5" y="458.892">M&#233;tricas de Desempenho</text></g><!--entity MOD_ECON--><g id="elem_MOD_ECON"><rect fill="#F1F1F1" height="46.2969" rx="3.5" ry="3.5" style="stroke:#181818;stroke-width:0.5;" width="267" x="1730.5" y="260.5969"/><rect fill="#F1F1F1" height="10" style="stroke:#181818;stroke-width:0.5;" width="15" x="1977.5" y="265.5969"/><rect fill="#F1F1F1" height="2" style="stroke:#181818;stroke-width:0.5;" width="4" x="1975.5" y="267.5969"/><rect fill="#F1F1F1" height="2" style="stroke:#181818;stroke-width:0.5;" width="4" x="1975.5" y="271.5969"/><text fill="#000000" font-family="sans-serif" font-size="14" lengthAdjust="spacing" textLength="227" x="1745.5" y="293.592">Modelos Econ&#244;micos e Tarifa&#231;&#227;o</text></g><!--entity MAPA_INT--><g id="elem_MAPA_INT"><rect fill="#F1F1F1" height="46.2969" rx="3.5" ry="3.5" style="stroke:#181818;stroke-width:0.5;" width="203" x="540.5" y="260.5969"/><rect fill="#F1F1F1" height="10" style="stroke:#181818;stroke-width:0.5;" width="15" x="723.5" y="265.5969"/><rect fill="#F1F1F1" height="2" style="stroke:#181818;stroke-width:0.5;" width="4" x="721.5" y="267.5969"/><rect fill="#F1F1F1" height="2" style="stroke:#181818;stroke-width:0.5;" width="4" x="721.5" y="271.5969"/><text fill="#000000" font-family="sans-serif" font-size="14" lengthAdjust="spacing" textLength="163" x="555.5" y="293.592">Mapa Interativo (2D/3D)</text></g><!--entity DASHBOARD--><g id="elem_DASHBOARD"><rect fill="#F1F1F1" height="46.2969" rx="3.5" ry="3.5" style="stroke:#181818;stroke-width:0.5;" width="202" x="1029" y="260.5969"/><rect fill="#F1F1F1" height="10" style="stroke:#181818;stroke-width:0.5;" width="15" x="1211" y="265.5969"/><rect fill="#F1F1F1" height="2" style="stroke:#181818;stroke-width:0.5;" width="4" x="1209" y="267.5969"/><rect fill="#F1F1F1" height="2" style="stroke:#181818;stroke-width:0.5;" width="4" x="1209" y="271.5969"/><text fill="#000000" font-family="sans-serif" font-size="14" lengthAdjust="spacing" textLength="162" x="1044" y="293.592">Dashboard Operacional</text></g><!--entity EXPORT--><g id="elem_EXPORT"><rect fill="#F1F1F1" height="46.2969" rx="3.5" ry="3.5" style="stroke:#181818;stroke-width:0.5;" width="186" x="1266" y="260.5969"/><rect fill="#F1F1F1" height="10" style="stroke:#181818;stroke-width:0.5;" width="15" x="1432" y="265.5969"/><rect fill="#F1F1F1" height="2" style="stroke:#181818;stroke-width:0.5;" width="4" x="1430" y="267.5969"/><rect fill="#F1F1F1" height="2" style="stroke:#181818;stroke-width:0.5;" width="4" x="1430" y="271.5969"/><text fill="#000000" font-family="sans-serif" font-size="14" lengthAdjust="spacing" textLength="146" x="1281" y="293.592">Exportador de Dados</text></g><!--entity USER_ACCESS--><g id="elem_USER_ACCESS"><rect fill="#F1F1F1" height="46.2969" rx="3.5" ry="3.5" style="stroke:#181818;stroke-width:0.5;" width="215" x="778.5" y="260.5969"/><rect fill="#F1F1F1" height="10" style="stroke:#181818;stroke-width:0.5;" width="15" x="973.5" y="265.5969"/><rect fill="#F1F1F1" height="2" style="stroke:#181818;stroke-width:0.5;" width="4" x="971.5" y="267.5969"/><rect fill="#F1F1F1" height="2" style="stroke:#181818;stroke-width:0.5;" width="4" x="971.5" y="271.5969"/><text fill="#000000" font-family="sans-serif" font-size="14" lengthAdjust="spacing" textLength="175" x="793.5" y="293.592">Usu&#225;rio / Perfil de Acesso</text></g><!--link SIM_CORE to AMB_4D--><g id="link_SIM_CORE_AMB_4D"><path d="M331.83,307.3569 C305.54,322.7869 270.31,343.9669 240,363.8969 C209.51,383.9369 180.5337,404.7123 156.9537,422.0523 " fill="none" id="SIM_CORE-to-AMB_4D" style="stroke:#454645;stroke-width:1.0;"/><polygon fill="#454645" points="152.12,425.6069,161.7403,423.4975,156.1481,422.6447,157.0009,417.0525,152.12,425.6069" style="stroke:#454645;stroke-width:1.0;"/><text fill="#000000" font-family="sans-serif" font-size="13" lengthAdjust="spacing" textLength="25" x="280.06" y="351.9638">Usa</text></g><!--link SIM_CORE to CONFIG--><g id="link_SIM_CORE_CONFIG"><path d="M371,307.1069 C371,338.2069 371,388.1969 371,419.4269 " fill="none" id="SIM_CORE-to-CONFIG" style="stroke:#454645;stroke-width:1.0;"/><polygon fill="#454645" points="371,425.4269,375,416.4269,371,420.4269,367,416.4269,371,425.4269" style="stroke:#454645;stroke-width:1.0;"/><text fill="#000000" font-family="sans-serif" font-size="13" lengthAdjust="spacing" textLength="61" x="372" y="351.9638">Configura</text></g><!--link SIM_CORE to DRONE_MODEL--><g id="link_SIM_CORE_DRONE_MODEL"><path d="M431.91,307.3169 C459.86,316.5469 493.68,326.1469 525,330.8969 C619.04,345.1269 1287.02,324.2469 1381,338.8969 C1406.28,342.8369 1410.72,351.9769 1436,355.8969 C1496.78,365.2969 2483.51,348.2969 2543,363.8969 C2588.81,375.9069 2630.6879,401.3814 2660.0279,421.9614 " fill="none" id="SIM_CORE-to-DRONE_MODEL" style="stroke:#454645;stroke-width:1.0;"/><polygon fill="#454645" points="2664.94,425.4069,2659.8689,416.9639,2660.8466,422.5356,2655.2749,423.5134,2664.94,425.4069" style="stroke:#454645;stroke-width:1.0;"/><text fill="#000000" font-family="sans-serif" font-size="13" lengthAdjust="spacing" textLength="54" x="1437" y="351.9638">Controla</text></g><!--link SIM_CORE to PROV_UTM--><g id="link_SIM_CORE_PROV_UTM"><path d="M436.64,307.3569 C463.72,315.9069 495.58,324.9869 525,330.8969 C558.3,337.5769 567.45,333.6069 601,338.8969 C752.38,362.7469 920.4913,400.4551 1023.3813,424.8051 " fill="none" id="SIM_CORE-to-PROV_UTM" style="stroke:#454645;stroke-width:1.0;"/><polygon fill="#454645" points="1029.22,426.1869,1021.3831,420.2217,1024.3544,425.0354,1019.5407,428.0067,1029.22,426.1869" style="stroke:#454645;stroke-width:1.0;"/><text fill="#000000" font-family="sans-serif" font-size="13" lengthAdjust="spacing" textLength="53" x="687.38" y="351.9638">Interage</text></g><!--link PROV_UTM to OIR_PV--><g id="link_PROV_UTM_OIR_PV"><path d="M1165.05,472.6069 C1185.39,481.5369 1209.89,490.9069 1233,496.1869 C1259.45,502.2369 2032.551,549.464 2317.731,566.744 " fill="none" id="PROV_UTM-to-OIR_PV" style="stroke:#454645;stroke-width:1.0;"/><polygon fill="#454645" points="2323.72,567.1069,2314.9784,562.5699,2318.7292,566.8045,2314.4945,570.5552,2323.72,567.1069" style="stroke:#454645;stroke-width:1.0;"/><text fill="#000000" font-family="sans-serif" font-size="13" lengthAdjust="spacing" textLength="58" x="1568.62" y="517.2538">Processa</text></g><!--link PROV_UTM to DSS--><g id="link_PROV_UTM_DSS"><path d="M1161.55,472.6569 C1203.41,494.9069 1261.6518,525.851 1303.4218,548.051 " fill="none" id="PROV_UTM-to-DSS" style="stroke:#454645;stroke-width:1.0;"/><polygon fill="#454645" points="1308.72,550.8669,1302.65,543.1109,1304.3048,548.5203,1298.8955,550.1752,1308.72,550.8669" style="stroke:#454645;stroke-width:1.0;"/><text fill="#000000" font-family="sans-serif" font-size="13" lengthAdjust="spacing" textLength="66" x="1249.89" y="517.2538">Sincroniza</text></g><!--link PROV_UTM to AG_DESC--><g id="link_PROV_UTM_AG_DESC"><path d="M1075.53,472.6569 C1032.77,494.9069 973.1827,525.8976 930.5127,548.0976 " fill="none" id="PROV_UTM-to-AG_DESC" style="stroke:#454645;stroke-width:1.0;"/><polygon fill="#454645" points="925.19,550.8669,935.0202,550.2615,929.6256,548.5592,931.3279,543.1645,925.19,550.8669" style="stroke:#454645;stroke-width:1.0;"/><text fill="#000000" font-family="sans-serif" font-size="13" lengthAdjust="spacing" textLength="43" x="1015.69" y="517.2538">Aciona</text></g><!--link PROV_UTM to AUT_AERO--><g id="link_PROV_UTM_AUT_AERO"><path d="M1118.08,472.6569 C1117.18,494.9069 1116.053,522.6718 1115.153,544.8718 " fill="none" id="PROV_UTM-to-AUT_AERO" style="stroke:#454645;stroke-width:1.0;"/><polygon fill="#454645" points="1114.91,550.8669,1119.2713,542.0363,1115.1125,545.871,1111.2778,541.7122,1114.91,550.8669" style="stroke:#454645;stroke-width:1.0;"/><text fill="#000000" font-family="sans-serif" font-size="13" lengthAdjust="spacing" textLength="50" x="1117.8" y="517.2538">Reporta</text></g><!--link OPERADOR to OIR_PV--><g id="link_OPERADOR_OIR_PV"><path d="M2425.37,472.6569 C2425.73,494.9069 2426.1827,522.6677 2426.5427,544.8677 " fill="none" id="OPERADOR-to-OIR_PV" style="stroke:#454645;stroke-width:1.0;"/><polygon fill="#454645" points="2426.64,550.8669,2430.4935,541.8032,2426.5589,545.8675,2422.4946,541.9329,2426.64,550.8669" style="stroke:#454645;stroke-width:1.0;"/><text fill="#000000" font-family="sans-serif" font-size="13" lengthAdjust="spacing" textLength="59" x="2427.12" y="517.2538">Submete</text></g><!--link DRONE_MODEL to MONITOR--><g id="link_DRONE_MODEL_MONITOR"><path d="M2662.87,425.4869 C2633.19,405.8469 2587.15,378.3269 2543,363.8969 C2516.17,355.1269 2507.82,360.6469 2480,355.8969 C2400.13,342.2369 2316.1359,323.9381 2250.3759,308.7381 " fill="none" id="DRONE_MODEL-to-MONITOR" style="stroke:#454645;stroke-width:1.0;"/><polygon fill="#454645" points="2244.53,307.3869,2252.398,313.311,2249.4016,308.5129,2254.1996,305.5165,2244.53,307.3869" style="stroke:#454645;stroke-width:1.0;"/><text fill="#000000" font-family="sans-serif" font-size="13" lengthAdjust="spacing" textLength="106" x="2481" y="351.9638">Envia Telemetria</text></g><!--link DRONE_MODEL to PROTO_COM--><g id="link_DRONE_MODEL_PROTO_COM"><path d="M2697.02,472.6569 C2699,494.9069 2701.4743,522.6908 2703.4643,544.8908 " fill="none" id="DRONE_MODEL-to-PROTO_COM" style="stroke:#454645;stroke-width:1.0;"/><polygon fill="#454645" points="2704,550.8669,2707.1805,541.5457,2703.5536,545.8868,2699.2124,542.2599,2704,550.8669" style="stroke:#454645;stroke-width:1.0;"/><text fill="#000000" font-family="sans-serif" font-size="13" lengthAdjust="spacing" textLength="64" x="2702.16" y="517.2538">Comunica</text></g><!--link MONITOR to RELATORIO--><g id="link_MONITOR_RELATORIO"><path d="M2084.09,307.2969 C2062.11,314.8069 2037.5,323.2169 2015,330.8969 C1918.42,363.8469 1812.2302,399.9941 1742.9602,423.5641 " fill="none" id="MONITOR-to-RELATORIO" style="stroke:#454645;stroke-width:1.0;"/><polygon fill="#454645" points="1737.28,425.4969,1747.0888,426.3845,1742.0135,423.8862,1744.5118,418.811,1737.28,425.4969" style="stroke:#454645;stroke-width:1.0;"/><text fill="#000000" font-family="sans-serif" font-size="13" lengthAdjust="spacing" textLength="76" x="1988.12" y="351.9638">Gera Dados</text></g><!--link MONITOR to METRICAS--><g id="link_MONITOR_METRICAS"><path d="M2150,307.1069 C2150,338.2069 2150,388.1969 2150,419.4269 " fill="none" id="MONITOR-to-METRICAS" style="stroke:#454645;stroke-width:1.0;"/><polygon fill="#454645" points="2150,425.4269,2154,416.4269,2150,420.4269,2146,416.4269,2150,425.4269" style="stroke:#454645;stroke-width:1.0;"/><text fill="#000000" font-family="sans-serif" font-size="13" lengthAdjust="spacing" textLength="46" x="2151" y="351.9638">Calcula</text></g><!--link RELATORIO to DASHBOARD--><g id="link_RELATORIO_DASHBOARD"><path d="M1628.88,425.4269 C1588.78,405.1669 1526.12,376.7269 1468,363.8969 C1384.6,345.4769 1358.8,376.8169 1276,355.8969 C1236.09,345.8069 1199.3831,327.1264 1170.7731,310.3164 " fill="none" id="RELATORIO-to-DASHBOARD" style="stroke:#454645;stroke-width:1.0;"/><polygon fill="#454645" points="1165.6,307.2769,1171.3334,315.2849,1169.9109,309.8098,1175.386,308.3874,1165.6,307.2769" style="stroke:#454645;stroke-width:1.0;"/><text fill="#000000" font-family="sans-serif" font-size="13" lengthAdjust="spacing" textLength="34" x="1277" y="351.9638">Exibe</text></g><!--link AUDITORIA to PROV_UTM--><g id="link_AUDITORIA_PROV_UTM"><path d="M1573.92,307.3869 C1551.17,324.2469 1517.5,345.9969 1484,355.8969 C1430.48,371.7069 1285.72,345.6069 1233,363.8969 C1196.51,376.5469 1166.2372,401.181 1144.9272,421.551 " fill="none" id="AUDITORIA-to-PROV_UTM" style="stroke:#454645;stroke-width:1.0;"/><polygon fill="#454645" points="1140.59,425.6969,1149.8598,422.3695,1144.2044,422.242,1144.3319,416.5865,1140.59,425.6969" style="stroke:#454645;stroke-width:1.0;"/><text fill="#000000" font-family="sans-serif" font-size="13" lengthAdjust="spacing" textLength="132" x="1523.2" y="351.9638">Avalia Conformidade</text></g><!--link MOD_ECON to RELATORIO--><g id="link_MOD_ECON_RELATORIO"><path d="M1837.57,307.1069 C1800.82,338.2069 1739.2204,390.3213 1702.3104,421.5513 " fill="none" id="MOD_ECON-to-RELATORIO" style="stroke:#454645;stroke-width:1.0;"/><polygon fill="#454645" points="1697.73,425.4269,1707.1843,422.6672,1701.547,422.1973,1702.0169,416.56,1697.73,425.4269" style="stroke:#454645;stroke-width:1.0;"/><text fill="#000000" font-family="sans-serif" font-size="13" lengthAdjust="spacing" textLength="77" x="1797.06" y="351.9638">Inclui Dados</text></g><!--link MAPA_INT to AMB_4D--><g id="link_MAPA_INT_AMB_4D"><path d="M591.81,307.3869 C552.06,324.1369 494.65,345.7269 442,355.8969 C397.89,364.4069 282.51,349.3569 240,363.8969 C202.62,376.6769 171.134,401.3737 148.944,421.7037 " fill="none" id="MAPA_INT-to-AMB_4D" style="stroke:#454645;stroke-width:1.0;"/><polygon fill="#454645" points="144.52,425.7569,153.8581,422.6264,148.2067,422.3792,148.4539,416.7278,144.52,425.7569" style="stroke:#454645;stroke-width:1.0;"/><text fill="#000000" font-family="sans-serif" font-size="13" lengthAdjust="spacing" textLength="87" x="504.98" y="351.9638">Exibe Cen&#225;rio</text></g><!--link DASHBOARD to MONITOR--><g id="link_DASHBOARD_MONITOR"><path d="M1153.46,260.1069 C1175.82,239.3769 1211.54,210.7169 1249,198.5969 C1329.98,172.3869 1933.29,174.7669 2015,198.5969 C2056.37,210.6669 2092.6199,235.7199 2118.3699,256.4899 " fill="none" id="DASHBOARD-to-MONITOR" style="stroke:#454645;stroke-width:1.0;"/><polygon fill="#454645" points="2123.04,260.2569,2118.5461,251.493,2119.1482,257.1178,2113.5235,257.7199,2123.04,260.2569" style="stroke:#454645;stroke-width:1.0;"/><text fill="#000000" font-family="sans-serif" font-size="13" lengthAdjust="spacing" textLength="64" x="1600" y="186.6638">Exibe KPIs</text></g><!--link USER_ACCESS to CONFIG--><g id="link_USER_ACCESS_CONFIG"><path d="M876.69,307.2869 C868.69,323.6269 855.5,344.7469 837,355.8969 C823.97,363.7469 784.01,361.4269 769,363.8969 C664.64,381.0269 552.0264,405.5579 471.6764,424.0979 " fill="none" id="USER_ACCESS-to-CONFIG" style="stroke:#454645;stroke-width:1.0;"/><polygon fill="#454645" points="465.83,425.4469,475.4989,427.321,470.702,424.3227,473.7002,419.5258,465.83,425.4469" style="stroke:#454645;stroke-width:1.0;"/><text fill="#000000" font-family="sans-serif" font-size="13" lengthAdjust="spacing" textLength="120" x="857.28" y="351.9638">Define Par&#226;metros</text></g><!--link EXPORT to RELATORIO--><g id="link_EXPORT_RELATORIO"><path d="M1336.47,307.1269 C1323.85,322.3469 1313,342.1369 1326,355.8969 C1336.86,367.3769 1452.59,360.3769 1468,363.8969 C1525.83,377.1069 1582.9456,402.6293 1623.0856,422.7393 " fill="none" id="EXPORT-to-RELATORIO" style="stroke:#454645;stroke-width:1.0;"/><polygon fill="#454645" points="1628.45,425.4269,1622.1951,417.8193,1623.9796,423.1872,1618.6117,424.9718,1628.45,425.4269" style="stroke:#454645;stroke-width:1.0;"/><text fill="#000000" font-family="sans-serif" font-size="13" lengthAdjust="spacing" textLength="49" x="1327" y="351.9638">Exporta</text></g><!--link INJ_FALHAS to DRONE_MODEL--><g id="link_INJ_FALHAS_DRONE_MODEL"><path d="M484.95,122.8669 C815.64,129.1969 2107.29,156.4269 2284,198.5969 C2430.31,233.5169 2469.65,251.3869 2592,338.8969 C2626.75,363.7469 2655.5377,396.8432 2674.4077,420.8032 " fill="none" id="INJ_FALHAS-to-DRONE_MODEL" style="stroke:#454645;stroke-width:1.0;"/><polygon fill="#454645" points="2678.12,425.5169,2675.694,415.9715,2675.0264,421.5888,2669.4091,420.9212,2678.12,425.5169" style="stroke:#454645;stroke-width:1.0;"/><text fill="#000000" font-family="sans-serif" font-size="13" lengthAdjust="spacing" textLength="89" x="2581.04" y="288.3138">Simula Falhas</text></g><!--link INJ_FALHAS to PROTO_COM--><g id="link_INJ_FALHAS_PROTO_COM"><path d="M484.88,122.4669 C870.15,127.7569 2576.47,153.6769 2679,198.5969 C2774.94,240.6369 2806.52,267.2769 2847,363.8969 C2869.72,418.1269 2876.98,445.6069 2847,496.1869 C2832.06,521.3969 2811.1151,536.3984 2785.1551,548.2884 " fill="none" id="INJ_FALHAS-to-PROTO_COM" style="stroke:#454645;stroke-width:1.0;"/><polygon fill="#454645" points="2779.7,550.7869,2789.5482,550.6759,2784.2459,548.7048,2786.2169,543.4025,2779.7,550.7869" style="stroke:#454645;stroke-width:1.0;"/><text fill="#000000" font-family="sans-serif" font-size="13" lengthAdjust="spacing" textLength="91" x="2844.29" y="351.9638">Simula Delays</text></g><!--link MOD_PERF to SIM_CORE--><g id="link_MOD_PERF_SIM_CORE"><path d="M218.61,143.8769 C252.33,174.6069 308.1149,225.4459 341.8749,256.2059 " fill="none" id="MOD_PERF-to-SIM_CORE" style="stroke:#454645;stroke-width:1.0;"/><polygon fill="#454645" points="346.31,260.2469,342.3513,251.2286,342.6141,256.8794,336.9633,257.1421,346.31,260.2469" style="stroke:#454645;stroke-width:1.0;"/><text fill="#000000" font-family="sans-serif" font-size="13" lengthAdjust="spacing" textLength="128" x="267.65" y="186.6638">Avalia Desempenho</text></g><!--SRC=[TLNBRkis4DtpAzYxQDD54A3DwYuAC7hageqjGRA30aKXCFBOOKk91YKPoItwCMqNHGjqTTily8zr-90bESdErXmEpvoPC_oiUuGQQAUU2Ub49u66WkyqhpdT0BsHgb8jBKIzbs8hAhvHzDByxIN-r7IzMj2uxtgj2DdpwcU-0_fkSVoqwQKovnto-EVn3qK3Q3hDvJlw2w7qXrb4QVYHShmdMPH1caS6WF3ZRree2fJL3m8F0xqEBOmjRihhq80ohe-_rz1f90cOfzcANQzTMWiDqcMSt1feqlm47L96LZ6NZxoryMJvRHcpkm-iC9W9ympqLkcQDvMZjaZ3CelocFpwUgMteA6f1A-Hg3Aw-3ephGumI7MnBeelRReiJ-zB_6GWh4TUOiCn2mEjiEo-GwbTgUjLoQ8yDRYmAEX5ADeAC-fd-ZajdflAfSEGpRIpCc6Y413MRANed0xijWoZ8h15gWqupZ7cub9ydEXboemJ1BvHPjHqbgcH-rufNsI8h85UEVhy0FJ2Nn8V_sb5fJp9F5r69TuGtPb3wHwq7Q8h6aZNNnJ48bDKceLfRc59ZdTbaZUM05vABwv3bn5ZPNRlPUvmL1t9GDLzWmgEPQ7SgnH7Q_5MNGnLbw85l2e7oRlZ9nozrfUtK0tgg7rlWQv0WXawmRrcosJbo8vdpwRV0lFeZY4mILtNDoQfi3uRfiJtF3Jv4kP6yY-ygCBFhgjGxw5vzCsALdaI-D6rWhSqmhOV_wr5PHsnubfipzeReIVUak5UjFqu4PWWmRPuFmrYy3ttdpjnm6Py5LvzxVknO1aha-NApWHl7nyKrnjg6rq9d0pfve0L7svIbbi7HqzxfJix1wP0_E6C6NsVfRbDj6vxjmYkh2c5jFsge6rTJUiYoaiM115w0ClwmZOG6Vy7NZCKR7FysvWJ2ufb_wHELnduApkA38k8Nbv-uzSDVK_NBPz7t7R1o6dppEEJYNSWN5Jo33Di0WGuLNTWMBtO9-G4DAVSvECPd1mZ1P-7pQfuZvKr5HeIspcF-cM026RRSXRrAmV3ETZc63vdnYU3HUTiYlu1ZG5aMhW1U8iW8ceEs8VHGI-W9wjQnPoH3O7N7Kg6pEReoLzu5FNZliTJo60PavpB2XjFnbDMkM4u3TSdyG3aPCVpTh43MeNRtkDBOTKXWy5Uy4cQIlPYdBgvqyZWdFd0MG9qU0d9oErCKmlxBajQCZ73V493s0hSqPC7apYBlM3g7Mb8fZswePqOYeplvIi3xfpadzTpwBIl7XXYtkUM34-hXPsyST9tN7h_0m00]--></g></svg>