<svg xmlns="http://www.w3.org/2000/svg" xmlns:xlink="http://www.w3.org/1999/xlink" contentStyleType="text/css" height="371px" preserveAspectRatio="none" style="width:1536px;height:371px;background:#FFFFFF;" version="1.1" viewBox="0 0 1536 371" width="1536px" zoomAndPan="magnify"><defs/><g><text fill="#000000" font-family="sans-serif" font-size="14" font-weight="bold" lengthAdjust="spacing" textLength="318" x="602" y="22.9951">PlanAr UTM Simulator - Blocos Principais</text><!--cluster Simula??o e Cen?rio--><g id="cluster_Simula&#231;&#227;o e Cen&#225;rio"><path d="M306.5,43.2969 L467.5,43.2969 A3.75,3.75 0 0 1 470,45.7969 L477,65.5938 L590.5,65.5938 A2.5,2.5 0 0 1 593,68.0938 L593,204.9869 A2.5,2.5 0 0 1 590.5,207.4869 L306.5,207.4869 A2.5,2.5 0 0 1 304,204.9869 L304,45.7969 A2.5,2.5 0 0 1 306.5,43.2969 " fill="none" style="stroke:#000000;stroke-width:1.5;"/><line style="stroke:#000000;stroke-width:1.5;" x1="304" x2="477" y1="65.5938" y2="65.5938"/><text fill="#000000" font-family="sans-serif" font-size="14" font-weight="bold" lengthAdjust="spacing" textLength="160" x="308" y="58.292">Simula&#231;&#227;o e Cen&#225;rio</text></g><!--cluster Operadores e OIR--><g id="cluster_Operadores e OIR"><path d="M8.5,43.2969 L149.5,43.2969 A3.75,3.75 0 0 1 152,45.7969 L159,65.5938 L277.5,65.5938 A2.5,2.5 0 0 1 280,68.0938 L280,361.8769 A2.5,2.5 0 0 1 277.5,364.3769 L8.5,364.3769 A2.5,2.5 0 0 1 6,361.8769 L6,45.7969 A2.5,2.5 0 0 1 8.5,43.2969 " fill="none" style="stroke:#000000;stroke-width:1.5;"/><line style="stroke:#000000;stroke-width:1.5;" x1="6" x2="159" y1="65.5938" y2="65.5938"/><text fill="#000000" font-family="sans-serif" font-size="14" font-weight="bold" lengthAdjust="spacing" textLength="140" x="10" y="58.292">Operadores e OIR</text></g><!--cluster Provedor UTM--><g id="cluster_Provedor UTM"><path d="M619.5,43.2969 L732.5,43.2969 A3.75,3.75 0 0 1 735,45.7969 L742,65.5938 L802.5,65.5938 A2.5,2.5 0 0 1 805,68.0938 L805,204.9869 A2.5,2.5 0 0 1 802.5,207.4869 L619.5,207.4869 A2.5,2.5 0 0 1 617,204.9869 L617,45.7969 A2.5,2.5 0 0 1 619.5,43.2969 " fill="none" style="stroke:#000000;stroke-width:1.5;"/><line style="stroke:#000000;stroke-width:1.5;" x1="617" x2="742" y1="65.5938" y2="65.5938"/><text fill="#000000" font-family="sans-serif" font-size="14" font-weight="bold" lengthAdjust="spacing" textLength="112" x="621" y="58.292">Provedor UTM</text></g><!--cluster Drone e Opera??o--><g id="cluster_Drone e Opera&#231;&#227;o"><path d="M831.5,43.2969 L976.5,43.2969 A3.75,3.75 0 0 1 979,45.7969 L986,65.5938 L1137.5,65.5938 A2.5,2.5 0 0 1 1140,68.0938 L1140,204.9869 A2.5,2.5 0 0 1 1137.5,207.4869 L831.5,207.4869 A2.5,2.5 0 0 1 829,204.9869 L829,45.7969 A2.5,2.5 0 0 1 831.5,43.2969 " fill="none" style="stroke:#000000;stroke-width:1.5;"/><line style="stroke:#000000;stroke-width:1.5;" x1="829" x2="986" y1="65.5938" y2="65.5938"/><text fill="#000000" font-family="sans-serif" font-size="14" font-weight="bold" lengthAdjust="spacing" textLength="144" x="833" y="58.292">Drone e Opera&#231;&#227;o</text></g><!--cluster Conflito e Registro--><g id="cluster_Conflito e Registro"><path d="M1166.5,51.4469 L1314.5,51.4469 A3.75,3.75 0 0 1 1317,53.9469 L1324,73.7437 L1526.5,73.7437 A2.5,2.5 0 0 1 1529,76.2437 L1529,196.8369 A2.5,2.5 0 0 1 1526.5,199.3369 L1166.5,199.3369 A2.5,2.5 0 0 1 1164,196.8369 L1164,53.9469 A2.5,2.5 0 0 1 1166.5,51.4469 " fill="none" style="stroke:#000000;stroke-width:1.5;"/><line style="stroke:#000000;stroke-width:1.5;" x1="1164" x2="1324" y1="73.7437" y2="73.7437"/><text fill="#000000" font-family="sans-serif" font-size="14" font-weight="bold" lengthAdjust="spacing" textLength="147" x="1168" y="66.442">Conflito e Registro</text></g><!--class Simulacao--><g id="elem_Simulacao"><rect codeLine="4" fill="#F1F1F1" height="113.1875" id="Simulacao" rx="2.5" ry="2.5" style="stroke:#181818;stroke-width:0.5;" width="117" x="320.5" y="78.2969"/><ellipse cx="342.25" cy="94.2969" fill="#ADD1B2" rx="11" ry="11" style="stroke:#181818;stroke-width:1.0;"/><path d="M345.2188,99.9375 Q344.6406,100.2344 344,100.375 Q343.3594,100.5313 342.6563,100.5313 Q340.1563,100.5313 338.8281,98.8906 Q337.5156,97.2344 337.5156,94.1094 Q337.5156,90.9844 338.8281,89.3281 Q340.1563,87.6719 342.6563,87.6719 Q343.3594,87.6719 344,87.8281 Q344.6563,87.9844 345.2188,88.2813 L345.2188,91 Q344.5938,90.4219 344,90.1563 Q343.4063,89.875 342.7813,89.875 Q341.4375,89.875 340.75,90.9531 Q340.0625,92.0156 340.0625,94.1094 Q340.0625,96.2031 340.75,97.2813 Q341.4375,98.3438 342.7813,98.3438 Q343.4063,98.3438 344,98.0781 Q344.5938,97.7969 345.2188,97.2188 L345.2188,99.9375 Z " fill="#000000"/><text fill="#000000" font-family="sans-serif" font-size="14" lengthAdjust="spacing" textLength="70" x="357.75" y="99.1436">Simulacao</text><line style="stroke:#181818;stroke-width:0.5;" x1="321.5" x2="436.5" y1="110.2969" y2="110.2969"/><ellipse cx="331.5" cy="123.9453" fill="none" rx="3" ry="3" style="stroke:#038048;stroke-width:1.0;"/><text fill="#000000" font-family="sans-serif" font-size="14" lengthAdjust="spacing" textLength="45" x="340.5" y="127.292">tempo</text><ellipse cx="331.5" cy="140.2422" fill="none" rx="3" ry="3" style="stroke:#038048;stroke-width:1.0;"/><text fill="#000000" font-family="sans-serif" font-size="14" lengthAdjust="spacing" textLength="91" x="340.5" y="143.5889">estadoGlobal</text><line style="stroke:#181818;stroke-width:0.5;" x1="321.5" x2="436.5" y1="150.8906" y2="150.8906"/><ellipse cx="331.5" cy="164.5391" fill="#84BE84" rx="3" ry="3" style="stroke:#038048;stroke-width:1.0;"/><text fill="#000000" font-family="sans-serif" font-size="14" lengthAdjust="spacing" textLength="49" x="340.5" y="167.8857">iniciar()</text><ellipse cx="331.5" cy="180.8359" fill="#84BE84" rx="3" ry="3" style="stroke:#038048;stroke-width:1.0;"/><text fill="#000000" font-family="sans-serif" font-size="14" lengthAdjust="spacing" textLength="57" x="340.5" y="184.1826">pausar()</text></g><!--class Cenario--><g id="elem_Cenario"><rect codeLine="10" fill="#F1F1F1" height="96.8906" id="Cenario" rx="2.5" ry="2.5" style="stroke:#181818;stroke-width:0.5;" width="105" x="472.5" y="86.4469"/><ellipse cx="496.5" cy="102.4469" fill="#ADD1B2" rx="11" ry="11" style="stroke:#181818;stroke-width:1.0;"/><path d="M499.4688,108.0875 Q498.8906,108.3844 498.25,108.525 Q497.6094,108.6812 496.9063,108.6812 Q494.4063,108.6812 493.0781,107.0406 Q491.7656,105.3844 491.7656,102.2594 Q491.7656,99.1344 493.0781,97.4781 Q494.4063,95.8219 496.9063,95.8219 Q497.6094,95.8219 498.25,95.9781 Q498.9063,96.1344 499.4688,96.4312 L499.4688,99.15 Q498.8438,98.5719 498.25,98.3062 Q497.6563,98.025 497.0313,98.025 Q495.6875,98.025 495,99.1031 Q494.3125,100.1656 494.3125,102.2594 Q494.3125,104.3531 495,105.4312 Q495.6875,106.4937 497.0313,106.4937 Q497.6563,106.4937 498.25,106.2281 Q498.8438,105.9469 499.4688,105.3687 L499.4688,108.0875 Z " fill="#000000"/><text fill="#000000" font-family="sans-serif" font-size="14" lengthAdjust="spacing" textLength="53" x="512.5" y="107.2936">Cenario</text><line style="stroke:#181818;stroke-width:0.5;" x1="473.5" x2="576.5" y1="118.4469" y2="118.4469"/><ellipse cx="483.5" cy="132.0953" fill="none" rx="3" ry="3" style="stroke:#038048;stroke-width:1.0;"/><text fill="#000000" font-family="sans-serif" font-size="14" lengthAdjust="spacing" textLength="42" x="492.5" y="135.442">zonas</text><ellipse cx="483.5" cy="148.3922" fill="none" rx="3" ry="3" style="stroke:#038048;stroke-width:1.0;"/><text fill="#000000" font-family="sans-serif" font-size="14" lengthAdjust="spacing" textLength="69" x="492.5" y="151.7389">restricoes</text><ellipse cx="483.5" cy="164.6891" fill="none" rx="3" ry="3" style="stroke:#038048;stroke-width:1.0;"/><text fill="#000000" font-family="sans-serif" font-size="14" lengthAdjust="spacing" textLength="79" x="492.5" y="168.0357">parametros</text><line style="stroke:#181818;stroke-width:0.5;" x1="473.5" x2="576.5" y1="175.3375" y2="175.3375"/></g><!--class Operador--><g id="elem_Operador"><rect codeLine="18" fill="#F1F1F1" height="96.8906" id="Operador" rx="2.5" ry="2.5" style="stroke:#181818;stroke-width:0.5;" width="112" x="22" y="86.4469"/><ellipse cx="43.75" cy="102.4469" fill="#ADD1B2" rx="11" ry="11" style="stroke:#181818;stroke-width:1.0;"/><path d="M46.7188,108.0875 Q46.1406,108.3844 45.5,108.525 Q44.8594,108.6812 44.1563,108.6812 Q41.6563,108.6812 40.3281,107.0406 Q39.0156,105.3844 39.0156,102.2594 Q39.0156,99.1344 40.3281,97.4781 Q41.6563,95.8219 44.1563,95.8219 Q44.8594,95.8219 45.5,95.9781 Q46.1563,96.1344 46.7188,96.4312 L46.7188,99.15 Q46.0938,98.5719 45.5,98.3062 Q44.9063,98.025 44.2813,98.025 Q42.9375,98.025 42.25,99.1031 Q41.5625,100.1656 41.5625,102.2594 Q41.5625,104.3531 42.25,105.4312 Q42.9375,106.4937 44.2813,106.4937 Q44.9063,106.4937 45.5,106.2281 Q46.0938,105.9469 46.7188,105.3687 L46.7188,108.0875 Z " fill="#000000"/><text fill="#000000" font-family="sans-serif" font-size="14" lengthAdjust="spacing" textLength="65" x="59.25" y="107.2936">Operador</text><line style="stroke:#181818;stroke-width:0.5;" x1="23" x2="133" y1="118.4469" y2="118.4469"/><ellipse cx="33" cy="132.0953" fill="none" rx="3" ry="3" style="stroke:#038048;stroke-width:1.0;"/><text fill="#000000" font-family="sans-serif" font-size="14" lengthAdjust="spacing" textLength="12" x="42" y="135.442">id</text><ellipse cx="33" cy="148.3922" fill="none" rx="3" ry="3" style="stroke:#038048;stroke-width:1.0;"/><text fill="#000000" font-family="sans-serif" font-size="14" lengthAdjust="spacing" textLength="40" x="42" y="151.7389">nome</text><line style="stroke:#181818;stroke-width:0.5;" x1="23" x2="133" y1="159.0406" y2="159.0406"/><ellipse cx="33" cy="172.6891" fill="#84BE84" rx="3" ry="3" style="stroke:#038048;stroke-width:1.0;"/><text fill="#000000" font-family="sans-serif" font-size="14" lengthAdjust="spacing" textLength="86" x="42" y="176.0357">solicitarOIR()</text></g><!--class OIR--><g id="elem_OIR"><rect codeLine="23" fill="#F1F1F1" height="113.1875" id="OIR" rx="2.5" ry="2.5" style="stroke:#181818;stroke-width:0.5;" width="95" x="169.5" y="78.2969"/><ellipse cx="202.05" cy="94.2969" fill="#ADD1B2" rx="11" ry="11" style="stroke:#181818;stroke-width:1.0;"/><path d="M205.0188,99.9375 Q204.4406,100.2344 203.8,100.375 Q203.1594,100.5313 202.4563,100.5313 Q199.9563,100.5313 198.6281,98.8906 Q197.3156,97.2344 197.3156,94.1094 Q197.3156,90.9844 198.6281,89.3281 Q199.9563,87.6719 202.4563,87.6719 Q203.1594,87.6719 203.8,87.8281 Q204.4563,87.9844 205.0188,88.2813 L205.0188,91 Q204.3938,90.4219 203.8,90.1563 Q203.2063,89.875 202.5813,89.875 Q201.2375,89.875 200.55,90.9531 Q199.8625,92.0156 199.8625,94.1094 Q199.8625,96.2031 200.55,97.2813 Q201.2375,98.3438 202.5813,98.3438 Q203.2063,98.3438 203.8,98.0781 Q204.3938,97.7969 205.0188,97.2188 L205.0188,99.9375 Z " fill="#000000"/><text fill="#000000" font-family="sans-serif" font-size="14" lengthAdjust="spacing" textLength="24" x="219.95" y="99.1436">OIR</text><line style="stroke:#181818;stroke-width:0.5;" x1="170.5" x2="263.5" y1="110.2969" y2="110.2969"/><ellipse cx="180.5" cy="123.9453" fill="none" rx="3" ry="3" style="stroke:#038048;stroke-width:1.0;"/><text fill="#000000" font-family="sans-serif" font-size="14" lengthAdjust="spacing" textLength="12" x="189.5" y="127.292">id</text><ellipse cx="180.5" cy="140.2422" fill="none" rx="3" ry="3" style="stroke:#038048;stroke-width:1.0;"/><text fill="#000000" font-family="sans-serif" font-size="14" lengthAdjust="spacing" textLength="27" x="189.5" y="143.5889">rota</text><ellipse cx="180.5" cy="156.5391" fill="none" rx="3" ry="3" style="stroke:#038048;stroke-width:1.0;"/><text fill="#000000" font-family="sans-serif" font-size="14" lengthAdjust="spacing" textLength="69" x="189.5" y="159.8857">prioridade</text><ellipse cx="180.5" cy="172.8359" fill="none" rx="3" ry="3" style="stroke:#038048;stroke-width:1.0;"/><text fill="#000000" font-family="sans-serif" font-size="14" lengthAdjust="spacing" textLength="43" x="189.5" y="176.1826">status</text><line style="stroke:#181818;stroke-width:0.5;" x1="170.5" x2="263.5" y1="183.4844" y2="183.4844"/></g><!--class Autorizacao--><g id="elem_Autorizacao"><rect codeLine="29" fill="#F1F1F1" height="96.8906" id="Autorizacao" rx="2.5" ry="2.5" style="stroke:#181818;stroke-width:0.5;" width="113" x="21.5" y="251.4869"/><ellipse cx="36.5" cy="267.4869" fill="#ADD1B2" rx="11" ry="11" style="stroke:#181818;stroke-width:1.0;"/><path d="M39.4688,273.1275 Q38.8906,273.4244 38.25,273.565 Q37.6094,273.7213 36.9063,273.7213 Q34.4063,273.7213 33.0781,272.0806 Q31.7656,270.4244 31.7656,267.2994 Q31.7656,264.1744 33.0781,262.5181 Q34.4063,260.8619 36.9063,260.8619 Q37.6094,260.8619 38.25,261.0181 Q38.9063,261.1744 39.4688,261.4713 L39.4688,264.19 Q38.8438,263.6119 38.25,263.3463 Q37.6563,263.065 37.0313,263.065 Q35.6875,263.065 35,264.1431 Q34.3125,265.2056 34.3125,267.2994 Q34.3125,269.3931 35,270.4713 Q35.6875,271.5338 37.0313,271.5338 Q37.6563,271.5338 38.25,271.2681 Q38.8438,270.9869 39.4688,270.4088 L39.4688,273.1275 Z " fill="#000000"/><text fill="#000000" font-family="sans-serif" font-size="14" lengthAdjust="spacing" textLength="81" x="50.5" y="272.3336">Autorizacao</text><line style="stroke:#181818;stroke-width:0.5;" x1="22.5" x2="133.5" y1="283.4869" y2="283.4869"/><ellipse cx="32.5" cy="297.1353" fill="none" rx="3" ry="3" style="stroke:#038048;stroke-width:1.0;"/><text fill="#000000" font-family="sans-serif" font-size="14" lengthAdjust="spacing" textLength="12" x="41.5" y="300.482">id</text><ellipse cx="32.5" cy="313.4322" fill="none" rx="3" ry="3" style="stroke:#038048;stroke-width:1.0;"/><text fill="#000000" font-family="sans-serif" font-size="14" lengthAdjust="spacing" textLength="65" x="41.5" y="316.7789">resultado</text><ellipse cx="32.5" cy="329.7291" fill="none" rx="3" ry="3" style="stroke:#038048;stroke-width:1.0;"/><text fill="#000000" font-family="sans-serif" font-size="14" lengthAdjust="spacing" textLength="69" x="41.5" y="333.0757">restricoes</text><line style="stroke:#181818;stroke-width:0.5;" x1="22.5" x2="133.5" y1="340.3775" y2="340.3775"/></g><!--class ProvedorUTM--><g id="elem_ProvedorUTM"><rect codeLine="37" fill="#F1F1F1" height="113.1875" id="ProvedorUTM" rx="2.5" ry="2.5" style="stroke:#181818;stroke-width:0.5;" width="155" x="633.5" y="78.2969"/><ellipse cx="662" cy="94.2969" fill="#ADD1B2" rx="11" ry="11" style="stroke:#181818;stroke-width:1.0;"/><path d="M664.9688,99.9375 Q664.3906,100.2344 663.75,100.375 Q663.1094,100.5313 662.4063,100.5313 Q659.9063,100.5313 658.5781,98.8906 Q657.2656,97.2344 657.2656,94.1094 Q657.2656,90.9844 658.5781,89.3281 Q659.9063,87.6719 662.4063,87.6719 Q663.1094,87.6719 663.75,87.8281 Q664.4063,87.9844 664.9688,88.2813 L664.9688,91 Q664.3438,90.4219 663.75,90.1563 Q663.1563,89.875 662.5313,89.875 Q661.1875,89.875 660.5,90.9531 Q659.8125,92.0156 659.8125,94.1094 Q659.8125,96.2031 660.5,97.2813 Q661.1875,98.3438 662.5313,98.3438 Q663.1563,98.3438 663.75,98.0781 Q664.3438,97.7969 664.9688,97.2188 L664.9688,99.9375 Z " fill="#000000"/><text fill="#000000" font-family="sans-serif" font-size="14" lengthAdjust="spacing" textLength="93" x="679" y="99.1436">ProvedorUTM</text><line style="stroke:#181818;stroke-width:0.5;" x1="634.5" x2="787.5" y1="110.2969" y2="110.2969"/><ellipse cx="644.5" cy="123.9453" fill="none" rx="3" ry="3" style="stroke:#038048;stroke-width:1.0;"/><text fill="#000000" font-family="sans-serif" font-size="14" lengthAdjust="spacing" textLength="12" x="653.5" y="127.292">id</text><ellipse cx="644.5" cy="140.2422" fill="none" rx="3" ry="3" style="stroke:#038048;stroke-width:1.0;"/><text fill="#000000" font-family="sans-serif" font-size="14" lengthAdjust="spacing" textLength="123" x="653.5" y="143.5889">zonaResponsavel</text><line style="stroke:#181818;stroke-width:0.5;" x1="634.5" x2="787.5" y1="150.8906" y2="150.8906"/><ellipse cx="644.5" cy="164.5391" fill="#84BE84" rx="3" ry="3" style="stroke:#038048;stroke-width:1.0;"/><text fill="#000000" font-family="sans-serif" font-size="14" lengthAdjust="spacing" textLength="86" x="653.5" y="167.8857">analisarOIR()</text><ellipse cx="644.5" cy="180.8359" fill="#84BE84" rx="3" ry="3" style="stroke:#038048;stroke-width:1.0;"/><text fill="#000000" font-family="sans-serif" font-size="14" lengthAdjust="spacing" textLength="129" x="653.5" y="184.1826">emitirAutorizacao()</text></g><!--class Drone--><g id="elem_Drone"><rect codeLine="46" fill="#F1F1F1" height="113.1875" id="Drone" rx="2.5" ry="2.5" style="stroke:#181818;stroke-width:0.5;" width="144" x="845" y="78.2969"/><ellipse cx="891.25" cy="94.2969" fill="#ADD1B2" rx="11" ry="11" style="stroke:#181818;stroke-width:1.0;"/><path d="M894.2188,99.9375 Q893.6406,100.2344 893,100.375 Q892.3594,100.5313 891.6563,100.5313 Q889.1563,100.5313 887.8281,98.8906 Q886.5156,97.2344 886.5156,94.1094 Q886.5156,90.9844 887.8281,89.3281 Q889.1563,87.6719 891.6563,87.6719 Q892.3594,87.6719 893,87.8281 Q893.6563,87.9844 894.2188,88.2813 L894.2188,91 Q893.5938,90.4219 893,90.1563 Q892.4063,89.875 891.7813,89.875 Q890.4375,89.875 889.75,90.9531 Q889.0625,92.0156 889.0625,94.1094 Q889.0625,96.2031 889.75,97.2813 Q890.4375,98.3438 891.7813,98.3438 Q892.4063,98.3438 893,98.0781 Q893.5938,97.7969 894.2188,97.2188 L894.2188,99.9375 Z " fill="#000000"/><text fill="#000000" font-family="sans-serif" font-size="14" lengthAdjust="spacing" textLength="43" x="911.75" y="99.1436">Drone</text><line style="stroke:#181818;stroke-width:0.5;" x1="846" x2="988" y1="110.2969" y2="110.2969"/><ellipse cx="856" cy="123.9453" fill="none" rx="3" ry="3" style="stroke:#038048;stroke-width:1.0;"/><text fill="#000000" font-family="sans-serif" font-size="14" lengthAdjust="spacing" textLength="12" x="865" y="127.292">id</text><ellipse cx="856" cy="140.2422" fill="none" rx="3" ry="3" style="stroke:#038048;stroke-width:1.0;"/><text fill="#000000" font-family="sans-serif" font-size="14" lengthAdjust="spacing" textLength="52" x="865" y="143.5889">modelo</text><ellipse cx="856" cy="156.5391" fill="none" rx="3" ry="3" style="stroke:#038048;stroke-width:1.0;"/><text fill="#000000" font-family="sans-serif" font-size="14" lengthAdjust="spacing" textLength="54" x="865" y="159.8857">posicao</text><line style="stroke:#181818;stroke-width:0.5;" x1="846" x2="988" y1="167.1875" y2="167.1875"/><ellipse cx="856" cy="180.8359" fill="#84BE84" rx="3" ry="3" style="stroke:#038048;stroke-width:1.0;"/><text fill="#000000" font-family="sans-serif" font-size="14" lengthAdjust="spacing" textLength="118" x="865" y="184.1826">executarMissao()</text></g><!--class Operacao--><g id="elem_Operacao"><rect codeLine="52" fill="#F1F1F1" height="96.8906" id="Operacao" rx="2.5" ry="2.5" style="stroke:#181818;stroke-width:0.5;" width="99" x="1024.5" y="86.4469"/><ellipse cx="1039.5" cy="102.4469" fill="#ADD1B2" rx="11" ry="11" style="stroke:#181818;stroke-width:1.0;"/><path d="M1042.4688,108.0875 Q1041.8906,108.3844 1041.25,108.525 Q1040.6094,108.6812 1039.9063,108.6812 Q1037.4063,108.6812 1036.0781,107.0406 Q1034.7656,105.3844 1034.7656,102.2594 Q1034.7656,99.1344 1036.0781,97.4781 Q1037.4063,95.8219 1039.9063,95.8219 Q1040.6094,95.8219 1041.25,95.9781 Q1041.9063,96.1344 1042.4688,96.4312 L1042.4688,99.15 Q1041.8438,98.5719 1041.25,98.3062 Q1040.6563,98.025 1040.0313,98.025 Q1038.6875,98.025 1038,99.1031 Q1037.3125,100.1656 1037.3125,102.2594 Q1037.3125,104.3531 1038,105.4312 Q1038.6875,106.4937 1040.0313,106.4937 Q1040.6563,106.4937 1041.25,106.2281 Q1041.8438,105.9469 1042.4688,105.3687 L1042.4688,108.0875 Z " fill="#000000"/><text fill="#000000" font-family="sans-serif" font-size="14" lengthAdjust="spacing" textLength="67" x="1053.5" y="107.2936">Operacao</text><line style="stroke:#181818;stroke-width:0.5;" x1="1025.5" x2="1122.5" y1="118.4469" y2="118.4469"/><ellipse cx="1035.5" cy="132.0953" fill="none" rx="3" ry="3" style="stroke:#038048;stroke-width:1.0;"/><text fill="#000000" font-family="sans-serif" font-size="14" lengthAdjust="spacing" textLength="41" x="1044.5" y="135.442">drone</text><ellipse cx="1035.5" cy="148.3922" fill="none" rx="3" ry="3" style="stroke:#038048;stroke-width:1.0;"/><text fill="#000000" font-family="sans-serif" font-size="14" lengthAdjust="spacing" textLength="60" x="1044.5" y="151.7389">trajetoria</text><ellipse cx="1035.5" cy="164.6891" fill="none" rx="3" ry="3" style="stroke:#038048;stroke-width:1.0;"/><text fill="#000000" font-family="sans-serif" font-size="14" lengthAdjust="spacing" textLength="43" x="1044.5" y="168.0357">status</text><line style="stroke:#181818;stroke-width:0.5;" x1="1025.5" x2="1122.5" y1="175.3375" y2="175.3375"/></g><!--class Conflito--><g id="elem_Conflito"><rect codeLine="60" fill="#F1F1F1" height="96.8906" id="Conflito" rx="2.5" ry="2.5" style="stroke:#181818;stroke-width:0.5;" width="140" x="1180" y="86.4469"/><ellipse cx="1220.2" cy="102.4469" fill="#ADD1B2" rx="11" ry="11" style="stroke:#181818;stroke-width:1.0;"/><path d="M1223.1688,108.0875 Q1222.5906,108.3844 1221.95,108.525 Q1221.3094,108.6812 1220.6063,108.6812 Q1218.1063,108.6812 1216.7781,107.0406 Q1215.4656,105.3844 1215.4656,102.2594 Q1215.4656,99.1344 1216.7781,97.4781 Q1218.1063,95.8219 1220.6063,95.8219 Q1221.3094,95.8219 1221.95,95.9781 Q1222.6063,96.1344 1223.1688,96.4312 L1223.1688,99.15 Q1222.5438,98.5719 1221.95,98.3062 Q1221.3563,98.025 1220.7313,98.025 Q1219.3875,98.025 1218.7,99.1031 Q1218.0125,100.1656 1218.0125,102.2594 Q1218.0125,104.3531 1218.7,105.4312 Q1219.3875,106.4937 1220.7313,106.4937 Q1221.3563,106.4937 1221.95,106.2281 Q1222.5438,105.9469 1223.1688,105.3687 L1223.1688,108.0875 Z " fill="#000000"/><text fill="#000000" font-family="sans-serif" font-size="14" lengthAdjust="spacing" textLength="52" x="1239.8" y="107.2936">Conflito</text><line style="stroke:#181818;stroke-width:0.5;" x1="1181" x2="1319" y1="118.4469" y2="118.4469"/><ellipse cx="1191" cy="132.0953" fill="none" rx="3" ry="3" style="stroke:#038048;stroke-width:1.0;"/><text fill="#000000" font-family="sans-serif" font-size="14" lengthAdjust="spacing" textLength="12" x="1200" y="135.442">id</text><ellipse cx="1191" cy="148.3922" fill="none" rx="3" ry="3" style="stroke:#038048;stroke-width:1.0;"/><text fill="#000000" font-family="sans-serif" font-size="14" lengthAdjust="spacing" textLength="26" x="1200" y="151.7389">tipo</text><ellipse cx="1191" cy="164.6891" fill="none" rx="3" ry="3" style="stroke:#038048;stroke-width:1.0;"/><text fill="#000000" font-family="sans-serif" font-size="14" lengthAdjust="spacing" textLength="114" x="1200" y="168.0357">droneEnvolvidos</text><line style="stroke:#181818;stroke-width:0.5;" x1="1181" x2="1319" y1="175.3375" y2="175.3375"/></g><!--class Registro--><g id="elem_Registro"><rect codeLine="65" fill="#F1F1F1" height="96.8906" id="Registro" rx="2.5" ry="2.5" style="stroke:#181818;stroke-width:0.5;" width="159" x="1354.5" y="86.4469"/><ellipse cx="1400.75" cy="102.4469" fill="#ADD1B2" rx="11" ry="11" style="stroke:#181818;stroke-width:1.0;"/><path d="M1403.7188,108.0875 Q1403.1406,108.3844 1402.5,108.525 Q1401.8594,108.6812 1401.1563,108.6812 Q1398.6563,108.6812 1397.3281,107.0406 Q1396.0156,105.3844 1396.0156,102.2594 Q1396.0156,99.1344 1397.3281,97.4781 Q1398.6563,95.8219 1401.1563,95.8219 Q1401.8594,95.8219 1402.5,95.9781 Q1403.1563,96.1344 1403.7188,96.4312 L1403.7188,99.15 Q1403.0938,98.5719 1402.5,98.3062 Q1401.9063,98.025 1401.2813,98.025 Q1399.9375,98.025 1399.25,99.1031 Q1398.5625,100.1656 1398.5625,102.2594 Q1398.5625,104.3531 1399.25,105.4312 Q1399.9375,106.4937 1401.2813,106.4937 Q1401.9063,106.4937 1402.5,106.2281 Q1403.0938,105.9469 1403.7188,105.3687 L1403.7188,108.0875 Z " fill="#000000"/><text fill="#000000" font-family="sans-serif" font-size="14" lengthAdjust="spacing" textLength="58" x="1421.25" y="107.2936">Registro</text><line style="stroke:#181818;stroke-width:0.5;" x1="1355.5" x2="1512.5" y1="118.4469" y2="118.4469"/><ellipse cx="1365.5" cy="132.0953" fill="none" rx="3" ry="3" style="stroke:#038048;stroke-width:1.0;"/><text fill="#000000" font-family="sans-serif" font-size="14" lengthAdjust="spacing" textLength="48" x="1374.5" y="135.442">evento</text><ellipse cx="1365.5" cy="148.3922" fill="none" rx="3" ry="3" style="stroke:#038048;stroke-width:1.0;"/><text fill="#000000" font-family="sans-serif" font-size="14" lengthAdjust="spacing" textLength="73" x="1374.5" y="151.7389">timestamp</text><line style="stroke:#181818;stroke-width:0.5;" x1="1355.5" x2="1512.5" y1="159.0406" y2="159.0406"/><ellipse cx="1365.5" cy="172.6891" fill="#84BE84" rx="3" ry="3" style="stroke:#038048;stroke-width:1.0;"/><text fill="#000000" font-family="sans-serif" font-size="14" lengthAdjust="spacing" textLength="133" x="1374.5" y="176.0357">naoConformidade()</text></g><!--SRC=[RL9BJiGm3DtFAI9M8CGX-0cnG3CQu02cDSYGn9MTLWZ4OH0B3Z8N8scJ8IsicZZr-zc1WaMpiU1FnTpVtPXRShs5m69Ep9dbXjLiX7n37P2kLXqqB_24vc3wR_Uz-sA3vXpzxbE83ypxofZ6Wcf6Qe37cZ770Lt7qn4rGCjNbX_0JXNor138uT5qxQ3NVFlO8qOMY2G5xuqzw7IK22ZKC6ff5t0OX7K4-AY4hpkKo1qxekxrzRQMNDuA0xNJrxF3wQHieyu04ZiNwc9bsISS80kAkeLQQ0jEWD3hhF-qZwdJMvtO7WUrjocnVzpEtMs41qmEuYnhPwMUHhm0Jp5kKJls2WFcSO07I_fhCytCKI2fL6R_DVs5iCUKQmfoN8vQnFIwe7VSeit6EbQAm9dl5Pi-9dr3gdkosQIgfDe4dTTCu1cJIFWJTItrdFsZfP2sTujF51ETQTq_B-G6AZiyKbxwWUr0BSzdMH1BDmxe0nS4bzRVTNctW1CNYnlNeuJw0m00]--></g></svg>